<svg width="200" height="200" viewBox="0 0 200 200" xmlns="http://www.w3.org/2000/svg">
  <defs>
    <linearGradient id="grad1" x1="0%" y1="0%" x2="100%" y2="100%">
      <stop offset="0%" style="stop-color:#667eea;stop-opacity:1" />
      <stop offset="100%" style="stop-color:#764ba2;stop-opacity:1" />
    </linearGradient>
  </defs>
  
  <!-- Background circle -->
  <circle cx="100" cy="100" r="90" fill="url(#grad1)" stroke="#4a5568" stroke-width="2"/>
  
  <!-- AI/Neural network representation -->
  <g stroke="white" stroke-width="3" fill="none">
    <!-- Input layer -->
    <circle cx="40" cy="60" r="8" fill="white"/>
    <circle cx="40" cy="80" r="8" fill="white"/>
    <circle cx="40" cy="100" r="8" fill="white"/>
    <circle cx="40" cy="120" r="8" fill="white"/>
    <circle cx="40" cy="140" r="8" fill="white"/>
    
    <!-- Hidden layer -->
    <circle cx="100" cy="50" r="8" fill="white"/>
    <circle cx="100" cy="70" r="8" fill="white"/>
    <circle cx="100" cy="90" r="8" fill="white"/>
    <circle cx="100" cy="110" r="8" fill="white"/>
    <circle cx="100" cy="130" r="8" fill="white"/>
    <circle cx="100" cy="150" r="8" fill="white"/>
    
    <!-- Output layer -->
    <circle cx="160" cy="80" r="8" fill="white"/>
    <circle cx="160" cy="100" r="8" fill="white"/>
    <circle cx="160" cy="120" r="8" fill="white"/>
    
    <!-- Connections -->
    <line x1="48" y1="60" x2="92" y2="50"/>
    <line x1="48" y1="60" x2="92" y2="70"/>
    <line x1="48" y1="60" x2="92" y2="90"/>
    <line x1="48" y1="80" x2="92" y2="50"/>
    <line x1="48" y1="80" x2="92" y2="70"/>
    <line x1="48" y1="80" x2="92" y2="90"/>
    <line x1="48" y1="100" x2="92" y2="70"/>
    <line x1="48" y1="100" x2="92" y2="90"/>
    <line x1="48" y1="100" x2="92" y2="110"/>
    <line x1="48" y1="120" x2="92" y2="90"/>
    <line x1="48" y1="120" x2="92" y2="110"/>
    <line x1="48" y1="120" x2="92" y2="130"/>
    <line x1="48" y1="140" x2="92" y2="110"/>
    <line x1="48" y1="140" x2="92" y2="130"/>
    <line x1="48" y1="140" x2="92" y2="150"/>
    
    <line x1="108" y1="50" x2="152" y2="80"/>
    <line x1="108" y1="50" x2="152" y2="100"/>
    <line x1="108" y1="70" x2="152" y2="80"/>
    <line x1="108" y1="70" x2="152" y2="100"/>
    <line x1="108" y1="90" x2="152" y2="100"/>
    <line x1="108" y1="90" x2="152" y2="120"/>
    <line x1="108" y1="110" x2="152" y2="100"/>
    <line x1="108" y1="110" x2="152" y2="120"/>
    <line x1="108" y1="130" x2="152" y2="120"/>
    <line x1="108" y1="150" x2="152" y2="120"/>
  </g>
  
  <!-- Text -->
  <text x="100" y="190" text-anchor="middle" fill="#4a5568" font-family="Arial, sans-serif" font-size="16" font-weight="bold">INFERNEO</text>
</svg> 